<svg version="1.1" id="Layer_1" xmlns="http://www.w3.org/2000/svg" xmlns:xlink="http://www.w3.org/1999/xlink" x="0px" y="0px"
	 width="100%" viewBox="0 0 512 512" enable-background="new 0 0 512 512" xml:space="preserve">
M410.680420,395.576508 
	C410.838623,395.538025 410.996796,395.499542 411.295471,394.558411 
	C413.510590,391.373291 416.169098,388.405334 417.855835,384.961487 
	C422.526917,375.424377 426.966980,365.745209 428.344025,355.048035 
	C428.525024,354.451447 428.864349,353.854919 428.864563,353.258270 
	C428.886627,289.870239 428.948242,226.481949 428.719055,163.094711 
	C428.705383,159.306473 426.352692,155.526672 425.490936,151.151550 
	C425.061249,148.685883 425.020020,146.070694 424.137909,143.779175 
	C418.949524,130.300781 411.447327,118.333084 400.423859,108.789803 
	C396.245667,105.172646 392.464996,100.777290 387.705933,98.220665 
	C379.401978,93.759666 370.858704,89.448280 360.818237,87.692047 
	C357.038788,86.840569 353.261200,85.256630 349.479584,85.246902 
	C287.503632,85.087402 225.527145,85.119751 163.550812,85.161446 
	C162.039780,85.162460 160.529129,85.764458 159.077682,86.051979 
	C159.077682,86.051979 159.042114,85.993439 158.467606,86.580856 
	C156.235687,87.060959 154.003769,87.541054 151.090424,88.306076 
	C140.947098,90.258377 131.506058,94.423248 123.466660,100.506218 
	C115.844185,106.273720 109.248047,113.561653 102.878784,120.779449 
	C95.126076,129.565002 90.415253,140.089951 87.685692,152.236511 
	C87.434570,154.502914 87.183449,156.769318 86.999367,158.995346 
	C86.999367,158.995346 86.958946,158.928314 86.285843,159.367706 
	C85.894440,160.712708 85.161873,162.057404 85.160637,163.402756 
	C85.103020,226.274506 85.097908,289.146301 85.179581,352.018005 
	C85.181389,353.411469 86.255630,354.803528 86.847786,356.121857 
	C86.847786,356.121857 86.775940,356.148438 86.867950,356.459106 
	C86.867950,356.459106 87.021301,356.744507 86.824326,357.598541 
	C87.534775,370.413116 93.717171,381.421356 100.178047,391.704376 
	C104.869827,399.171722 112.515785,404.966370 119.433075,410.810181 
	C130.571213,420.219788 143.656708,425.678314 158.721527,428.328339 
	C159.844635,428.508728 160.967667,428.846558 162.090851,428.846954 
	C225.183640,428.868988 288.276764,428.945862 351.368561,428.691803 
	C356.082306,428.672852 360.786407,426.265259 366.231659,425.006744 
	C377.169708,422.002075 387.721375,418.257080 396.286530,410.067200 
	C395.988403,410.254791 395.690277,410.442383 395.392120,410.630005 
	C395.326233,410.378937 395.260345,410.127838 396.025879,409.564636 
	C396.252106,409.373718 396.478363,409.182800 397.360718,409.280731 
	C400.417938,406.698029 403.618195,404.260925 406.465179,401.464233 
	C407.682709,400.268219 408.164124,398.322845 409.913391,396.089813 
	C410.245514,395.915558 410.577606,395.741333 410.680420,395.576508 
z"/>
<path fill="#F26721" opacity="1.000000" stroke="none" 
	d="
M395.718414,409.617310 
	C387.721375,418.257080 377.169708,422.002075 365.432251,425.025818 
	C359.665649,425.613739 354.698425,426.182587 349.382080,426.587769 
	C347.381775,426.282837 345.730621,426.018646 344.079437,426.018036 
	C286.432678,425.996796 228.785919,425.992981 171.139175,426.031708 
	C169.178040,426.033020 167.217194,426.496643 164.905762,426.795898 
	C164.083801,426.872437 163.612305,426.897858 162.926941,426.829468 
	C162.100998,427.059052 161.488892,427.382416 160.536789,427.738098 
	C159.509598,427.743103 158.822418,427.715790 158.135223,427.688477 
	C143.656708,425.678314 130.571213,420.219788 119.433075,410.810181 
	C112.515785,404.966370 104.869827,399.171722 100.178047,391.704376 
	C93.717171,381.421356 87.534775,370.413116 86.950729,357.089417 
	C87.061195,356.384308 86.960800,356.240387 86.775940,356.148438 
	C86.775940,356.148438 86.847786,356.121857 86.928490,355.724243 
	C87.015320,353.557861 87.021454,351.789124 87.010811,349.790344 
	C86.994034,349.560272 86.933334,349.102966 87.002983,348.753723 
	C87.123474,348.172516 87.174324,347.940582 87.397202,347.365662 
	C87.714989,345.373077 87.987526,343.723541 87.988190,342.073883 
	C88.011009,285.437378 88.015785,228.800888 87.976418,172.164398 
	C87.975052,170.207016 87.495300,168.249969 87.199249,165.831970 
	C87.092972,163.223572 87.025963,161.075943 86.958946,158.928314 
	C86.958946,158.928314 86.999367,158.995346 87.180450,158.794647 
	C87.584183,156.262817 87.806839,153.931686 88.029495,151.600571 
	C90.415253,140.089951 95.126076,129.565002 102.878784,120.779449 
	C109.248047,113.561653 115.844185,106.273720 123.466660,100.506218 
	C131.506058,94.423248 140.947098,90.258377 151.709442,88.295761 
	C154.566345,87.521439 156.804230,86.757439 159.042114,85.993439 
	C159.042114,85.993439 159.077682,86.051979 159.414108,86.142105 
	C160.495987,86.259712 161.241425,86.287209 162.116547,86.423363 
	C162.418167,86.676323 162.598206,86.809700 162.888428,86.988419 
	C162.990494,87.044670 163.136505,87.226372 163.497818,87.384018 
	C165.671387,87.694878 167.483582,87.981255 169.295898,87.981979 
	C226.651047,88.004875 284.006195,88.008171 341.361328,87.967316 
	C343.482391,87.965805 345.603088,87.492203 348.171783,87.194099 
	C352.848053,87.436607 357.076538,87.723625 361.304993,88.010651 
	C370.858704,89.448280 379.401978,93.759666 387.705933,98.220665 
	C392.464996,100.777290 396.245667,105.172646 400.423859,108.789803 
	C411.447327,118.333084 418.949524,130.300781 424.137909,143.779175 
	C425.020020,146.070694 425.061249,148.685883 425.370422,151.792694 
	C426.055237,155.928406 426.860535,159.422974 427.381927,163.163574 
	C426.731842,164.985443 426.046814,166.560974 426.045410,168.137146 
	C425.992401,227.963821 425.987396,287.790588 426.073914,347.617188 
	C426.076569,349.439423 427.120972,351.260162 427.703430,353.382324 
	C427.713348,354.084808 427.699524,354.486633 427.685669,354.888428 
	C426.966980,365.745209 422.526917,375.424377 417.855835,384.961487 
	C416.169098,388.405334 413.510590,391.373291 411.253418,394.924805 
	C411.211395,395.291168 411.080292,395.681183 411.080292,395.681183 
	C411.080292,395.681183 410.909698,395.567047 410.909698,395.567078 
	C410.577606,395.741333 410.245514,395.915558 409.172791,396.528595 
	C404.522980,400.975555 400.613770,404.983734 396.704590,408.991913 
	C396.478363,409.182800 396.252106,409.373718 395.665649,409.668732 
	C395.305450,409.772827 395.718414,409.617310 395.718414,409.617310 
M341.250702,218.313004 
	C335.144043,188.565338 304.735504,163.070053 282.714203,169.249008 
	C282.714203,175.808350 282.714203,182.367676 282.714203,188.844223 
	C306.688995,193.314407 320.035278,206.348297 321.038300,225.884781 
	C321.499084,234.859543 319.277069,243.086197 314.114624,250.411926 
	C306.490814,261.230469 295.611847,266.222534 282.754150,266.975647 
	C282.754150,274.189514 282.754150,280.910614 282.754150,287.587677 
	C310.272644,289.487030 347.550110,263.377014 341.250702,218.313004 
M193.139435,283.936401 
	C193.267914,280.118317 192.921326,276.212646 193.606277,272.497162 
	C196.735428,255.523163 209.999893,243.209534 227.195038,240.674927 
	C228.780045,240.441299 231.405365,239.051163 231.470261,238.061798 
	C231.869080,231.981171 231.670151,225.861359 231.670151,219.133743 
	C208.936356,220.904984 191.144211,230.078873 180.057739,249.474533 
	C167.567429,271.326202 168.735901,293.441681 183.187286,313.999054 
	C194.673798,330.338837 211.202393,338.210480 231.354584,339.252625 
	C231.354584,331.771088 231.354584,325.073914 231.354584,318.459595 
	C208.239761,314.134247 197.305969,304.383514 193.139435,283.936401 
M255.721527,271.079346 
	C263.792969,271.362152 269.615570,267.744965 272.751160,260.435455 
	C275.565125,253.875610 274.312958,247.625290 269.496094,242.336792 
	C264.489960,236.840469 256.826447,235.308441 250.281693,238.214386 
	C243.578400,241.190704 239.418503,248.305145 240.111847,255.607300 
	C240.856888,263.454041 246.264740,269.103302 255.721527,271.079346 
z"/>
<path fill="#BD9A81" opacity="1.000000" stroke="none" 
	d="
M158.428375,428.008423 
	C158.822418,427.715790 159.509598,427.743103 160.855728,427.771606 
	C162.056717,427.489655 162.598770,427.206482 163.140808,426.923279 
	C163.612305,426.897858 164.083801,426.872437 165.348373,426.840820 
	C206.884903,426.866608 247.628342,426.922852 288.371796,426.920349 
	C308.824921,426.919128 329.278076,426.811127 349.731201,426.751434 
	C354.698425,426.182587 359.665649,425.613739 365.063934,425.006500 
	C360.786407,426.265259 356.082306,428.672852 351.368561,428.691803 
	C288.276764,428.945862 225.183640,428.868988 162.090851,428.846954 
	C160.967667,428.846558 159.844635,428.508728 158.428375,428.008423 
z"/>
<path fill="#BD9980" opacity="1.000000" stroke="none" 
	d="
M361.061615,87.851349 
	C357.076538,87.723625 352.848053,87.436607 347.731750,87.149979 
	C285.608124,87.175697 224.372314,87.201035 163.136505,87.226364 
	C163.136505,87.226372 162.990494,87.044670 162.818222,86.817810 
	C162.481155,86.368111 162.261475,86.276031 161.986877,86.314697 
	C161.241425,86.287209 160.495987,86.259712 159.384430,86.159195 
	C160.529129,85.764458 162.039780,85.162460 163.550812,85.161446 
	C225.527145,85.119751 287.503632,85.087402 349.479584,85.246902 
	C353.261200,85.256630 357.038788,86.840569 361.061615,87.851349 
z"/>
<path fill="#BE9678" opacity="1.000000" stroke="none" 
	d="
M427.665802,162.917557 
	C426.860535,159.422974 426.055237,155.928406 425.169159,152.088379 
	C426.352692,155.526672 428.705383,159.306473 428.719055,163.094711 
	C428.948242,226.481949 428.886627,289.870239 428.864563,353.258270 
	C428.864349,353.854919 428.525024,354.451447 428.014832,354.968231 
	C427.699524,354.486633 427.713348,354.084808 427.759399,352.955017 
	C427.506287,348.946991 426.975067,345.667175 426.972198,342.386871 
	C426.923065,285.682983 426.927460,228.979080 426.971527,172.275223 
	C426.973938,169.155807 427.424072,166.036774 427.665802,162.917557 
z"/>
<path fill="#BC9379" opacity="1.000000" stroke="none" 
	d="
M87.027588,350.020386 
	C87.021454,351.789124 87.015320,353.557861 86.919403,355.761414 
	C86.255630,354.803528 85.181389,353.411469 85.179581,352.018005 
	C85.097908,289.146301 85.103020,226.274506 85.160637,163.402756 
	C85.161873,162.057404 85.894440,160.712708 86.622391,159.148010 
	C87.025963,161.075943 87.092972,163.223572 87.156105,166.270813 
	C87.118286,200.253174 87.051346,233.335938 87.060707,266.418671 
	C87.068375,293.515320 87.166924,320.612000 87.225182,347.708649 
	C87.174324,347.940582 87.123474,348.172516 86.874954,348.846313 
	C86.536774,349.618988 86.653542,349.863068 87.027588,350.020386 
z"/>
<path fill="#E3C3AD" opacity="1.000000" stroke="none" 
	d="
M397.032654,409.136322 
	C400.613770,404.983734 404.522980,400.975555 408.706085,396.842651 
	C408.164124,398.322845 407.682709,400.268219 406.465179,401.464233 
	C403.618195,404.260925 400.417938,406.698029 397.032654,409.136322 
z"/>
<path fill="#BD9980" opacity="1.000000" stroke="none" 
	d="
M158.754852,86.287155 
	C156.804230,86.757439 154.566345,87.521439 152.050156,88.153297 
	C154.003769,87.541054 156.235687,87.060959 158.754852,86.287155 
z"/>
<path fill="#BC9379" opacity="1.000000" stroke="none" 
	d="
M87.857590,151.918549 
	C87.806839,153.931686 87.584183,156.262817 87.146927,158.814819 
	C87.183449,156.769318 87.434570,154.502914 87.857590,151.918549 
z"/>
<path fill="#E3C3AD" opacity="1.000000" stroke="none" 
	d="
M410.795044,395.571777 
	C410.909698,395.567047 411.080292,395.681183 411.080292,395.681183 
	C411.080292,395.681183 411.211395,395.291168 411.183197,395.376099 
	C410.996796,395.499542 410.838623,395.538025 410.795044,395.571777 
z"/>
<path fill="#E3C3AD" opacity="1.000000" stroke="none" 
	d="
M396.002472,409.842255 
	C395.718414,409.617310 395.305450,409.772827 395.249939,409.824799 
	C395.260345,410.127838 395.326233,410.378937 395.392151,410.630005 
	C395.690277,410.442383 395.988403,410.254791 396.002472,409.842255 
z"/>
<path fill="#BC9379" opacity="1.000000" stroke="none" 
	d="
M86.821945,356.303772 
	C86.960800,356.240387 87.061195,356.384308 87.049210,356.662384 
	C87.021301,356.744507 86.867950,356.459106 86.821945,356.303772 
z"/>
<path fill="#FDFBF8" opacity="1.000000" stroke="none" 
	d="
M341.324585,218.749756 
	C347.550110,263.377014 310.272644,289.487030 282.754150,287.587677 
	C282.754150,280.910614 282.754150,274.189514 282.754150,266.975647 
	C295.611847,266.222534 306.490814,261.230469 314.114624,250.411926 
	C319.277069,243.086197 321.499084,234.859543 321.038300,225.884781 
	C320.035278,206.348297 306.688995,193.314407 282.714203,188.844223 
	C282.714203,182.367676 282.714203,175.808350 282.718872,169.245682 
	C304.735504,163.070053 335.144043,188.565338 341.324585,218.749756 
z"/>
<path fill="#FDFBF8" opacity="1.000000" stroke="none" 
	d="
M193.200211,284.368164 
	C197.305969,304.383514 208.239761,314.134247 231.354584,318.459595 
	C231.354584,325.073914 231.354584,331.771088 231.354584,339.252625 
	C211.202393,338.210480 194.673798,330.338837 183.187286,313.999054 
	C168.735901,293.441681 167.567429,271.326202 180.057739,249.474533 
	C191.144211,230.078873 208.936356,220.904984 231.670151,219.133743 
	C231.670151,225.861359 231.869080,231.981171 231.470261,238.061798 
	C231.405365,239.051163 228.780045,240.441299 227.195038,240.674927 
	C209.999893,243.209534 196.735428,255.523163 193.606277,272.497162 
	C192.921326,276.212646 193.267914,280.118317 193.200211,284.368164 
z"/>
<path fill="#FDFBF8" opacity="1.000000" stroke="none" 
	d="
M255.295471,271.051514 
	C246.264740,269.103302 240.856888,263.454041 240.111847,255.607300 
	C239.418503,248.305145 243.578400,241.190704 250.281693,238.214386 
	C256.826447,235.308441 264.489960,236.840469 269.496094,242.336792 
	C274.312958,247.625290 275.565125,253.875610 272.751160,260.435455 
	C269.615570,267.744965 263.792969,271.362152 255.295471,271.051514 
z"/>
<path fill="#E15B1A" opacity="1.000000" stroke="none" 
	d="
M427.381927,163.163574 
	C427.424072,166.036774 426.973938,169.155807 426.971527,172.275223 
	C426.927460,228.979080 426.923065,285.682983 426.972198,342.386871 
	C426.975067,345.667175 427.506287,348.946991 427.735626,352.654327 
	C427.120972,351.260162 426.076569,349.439423 426.073914,347.617188 
	C425.987396,287.790588 425.992401,227.963821 426.045410,168.137146 
	C426.046814,166.560974 426.731842,164.985443 427.381927,163.163574 
z"/>
<path fill="#DC5E1A" opacity="1.000000" stroke="none" 
	d="
M349.382080,426.587769 
	C329.278076,426.811127 308.824921,426.919128 288.371796,426.920349 
	C247.628342,426.922852 206.884903,426.866608 165.698822,426.789673 
	C167.217194,426.496643 169.178040,426.033020 171.139175,426.031708 
	C228.785919,425.992981 286.432678,425.996796 344.079437,426.018036 
	C345.730621,426.018646 347.381775,426.282837 349.382080,426.587769 
z"/>
<path fill="#DD5D1A" opacity="1.000000" stroke="none" 
	d="
M163.497818,87.384018 
	C224.372314,87.201035 285.608124,87.175697 347.283936,87.194489 
	C345.603088,87.492203 343.482391,87.965805 341.361328,87.967316 
	C284.006195,88.008171 226.651047,88.004875 169.295898,87.981979 
	C167.483582,87.981255 165.671387,87.694878 163.497818,87.384018 
z"/>
<path fill="#DD5B17" opacity="1.000000" stroke="none" 
	d="
M87.397202,347.365662 
	C87.166924,320.612000 87.068375,293.515320 87.060707,266.418671 
	C87.051346,233.335938 87.118286,200.253174 87.195374,166.731598 
	C87.495300,168.249969 87.975052,170.207016 87.976418,172.164398 
	C88.015785,228.800888 88.011009,285.437378 87.988190,342.073883 
	C87.987526,343.723541 87.714989,345.373077 87.397202,347.365662 
z"/>
<path fill="#DC5E1A" opacity="1.000000" stroke="none" 
	d="
M162.926941,426.829468 
	C162.598770,427.206482 162.056717,427.489655 161.195724,427.739319 
	C161.488892,427.382416 162.100998,427.059052 162.926941,426.829468 
z"/>
<path fill="#DD5B17" opacity="1.000000" stroke="none" 
	d="
M87.010811,349.790344 
	C86.653542,349.863068 86.536774,349.618988 86.805313,349.195557 
	C86.933334,349.102966 86.994034,349.560272 87.010811,349.790344 
z"/>
<path fill="#DD5D1A" opacity="1.000000" stroke="none" 
	d="
M162.116547,86.423363 
	C162.261475,86.276031 162.481155,86.368111 162.716156,86.761551 
	C162.598206,86.809700 162.418167,86.676323 162.116547,86.423363 
z"/>
</svg>